<svg width="109" height="51" viewBox="0 0 109 51" fill="none" xmlns="http://www.w3.org/2000/svg">
<path d="M13.574 32.948C14.4833 33.2853 15.1873 33.7767 15.686 34.422C16.1847 35.0673 16.434 35.8447 16.434 36.754C16.434 38.1033 15.8767 39.152 14.762 39.9C13.6473 40.6333 12.034 41 9.922 41H1.254V25.6H9.482C11.5353 25.6 13.0827 25.9667 14.124 26.7C15.18 27.4333 15.708 28.4087 15.708 29.626C15.708 30.3447 15.5247 30.99 15.158 31.562C14.806 32.134 14.278 32.596 13.574 32.948ZM6.358 29.23V31.518H8.778C9.90733 31.518 10.472 31.1367 10.472 30.374C10.472 29.6113 9.90733 29.23 8.778 29.23H6.358ZM9.482 37.37C10.626 37.37 11.198 36.9667 11.198 36.16C11.198 35.3533 10.626 34.95 9.482 34.95H6.358V37.37H9.482ZM34.6182 25.6L28.1062 41H23.0022L16.4902 25.6H22.0782L25.7522 34.598L29.5142 25.6H34.6182ZM38.3714 29.626H33.8614V25.6H48.0734V29.626H43.5634V41H38.3714V29.626ZM57.364 41.11C55.8533 41.11 54.4893 40.7727 53.272 40.098C52.0693 39.4233 51.116 38.492 50.412 37.304C49.7226 36.116 49.378 34.7813 49.378 33.3C49.378 31.8187 49.7226 30.484 50.412 29.296C51.116 28.108 52.0693 27.1767 53.272 26.502C54.4893 25.8273 55.8533 25.49 57.364 25.49C58.4786 25.49 59.5053 25.6733 60.444 26.04C61.3826 26.392 62.182 26.92 62.842 27.624L62.138 28.35C60.906 27.1327 59.3293 26.524 57.408 26.524C56.1173 26.524 54.944 26.8173 53.888 27.404C52.832 27.9907 52.0033 28.8047 51.402 29.846C50.8006 30.8727 50.5 32.024 50.5 33.3C50.5 34.576 50.8006 35.7347 51.402 36.776C52.0033 37.8027 52.832 38.6093 53.888 39.196C54.944 39.7827 56.1173 40.076 57.408 40.076C59.3146 40.076 60.8913 39.46 62.138 38.228L62.842 38.954C62.182 39.658 61.3753 40.1933 60.422 40.56C59.4833 40.9267 58.464 41.11 57.364 41.11ZM75.7178 36.666H66.7858L64.8278 41H63.6178L70.7018 25.6H71.8238L78.9078 41H77.6978L75.7178 36.666ZM75.2998 35.72L71.2518 26.832L67.2258 35.72H75.2998ZM92.3955 41L88.7215 35.852C88.1789 35.9253 87.6802 35.962 87.2255 35.962H82.8255V41H81.7035V25.6H87.2255C89.1615 25.6 90.6795 26.062 91.7795 26.986C92.8795 27.8953 93.4295 29.164 93.4295 30.792C93.4295 32.0093 93.1142 33.036 92.4835 33.872C91.8675 34.6933 90.9802 35.2727 89.8215 35.61L93.6715 41H92.3955ZM87.2255 34.972C88.8682 34.972 90.1222 34.6127 90.9875 33.894C91.8529 33.1607 92.2855 32.1267 92.2855 30.792C92.2855 29.4573 91.8529 28.4307 90.9875 27.712C90.1222 26.9787 88.8682 26.612 87.2255 26.612H82.8255V34.972H87.2255ZM101.586 41.11C100.456 41.11 99.3782 40.9193 98.3515 40.538C97.3395 40.142 96.5475 39.636 95.9755 39.02L96.4815 38.184C97.0242 38.756 97.7502 39.2253 98.6595 39.592C99.5835 39.944 100.552 40.12 101.564 40.12C103.03 40.12 104.138 39.8413 104.886 39.284C105.634 38.7267 106.008 38.0007 106.008 37.106C106.008 36.4167 105.81 35.8667 105.414 35.456C105.018 35.0453 104.526 34.73 103.94 34.51C103.353 34.29 102.561 34.0627 101.564 33.828C100.434 33.5493 99.5248 33.278 98.8355 33.014C98.1608 32.75 97.5815 32.3467 97.0975 31.804C96.6282 31.2467 96.3935 30.506 96.3935 29.582C96.3935 28.834 96.5915 28.152 96.9875 27.536C97.3835 26.9053 97.9848 26.4067 98.7915 26.04C99.6128 25.6733 100.632 25.49 101.85 25.49C102.7 25.49 103.536 25.6147 104.358 25.864C105.179 26.1133 105.89 26.4507 106.492 26.876L106.074 27.778C105.458 27.3527 104.776 27.03 104.028 26.81C103.294 26.59 102.568 26.48 101.85 26.48C100.427 26.48 99.3488 26.766 98.6155 27.338C97.8822 27.91 97.5155 28.6507 97.5155 29.56C97.5155 30.2493 97.7135 30.7993 98.1095 31.21C98.5055 31.6207 98.9968 31.936 99.5835 32.156C100.17 32.376 100.97 32.6107 101.982 32.86C103.111 33.1387 104.013 33.41 104.688 33.674C105.362 33.938 105.934 34.3413 106.404 34.884C106.888 35.412 107.13 36.1307 107.13 37.04C107.13 37.788 106.924 38.47 106.514 39.086C106.118 39.702 105.502 40.1933 104.666 40.56C103.83 40.9267 102.803 41.11 101.586 41.11Z" fill="#37467B"/>
<path d="M7.53852 17.2459C5.20598 17.0188 2.59935 16.3279 1.57304 16.5902C0.546717 16.8525 1.12402 18.8197 1.57304 18.9508C2.02205 19.082 7.36988 18.8222 11.1306 18.9508C13.4427 19.0299 14.3338 20 16.6471 20C18.0583 20 18.8922 19.2787 18.8922 19.2787C18.8922 19.2787 17.1574 18.756 15.4284 18.4262C14.1174 18.1762 12.9429 17.7723 11.5155 17.6393C10.0881 17.5063 8.96541 17.3848 7.53852 17.2459Z" fill="url(#paint0_linear)"/>
<path d="M3.43324 13.8361C3.33201 13.9633 3.23594 13.9936 3.11252 14.0984C2.78888 14.373 2.78403 14.8798 3.12152 15.1364C3.2259 15.2157 3.3332 15.2894 3.43324 15.3443C4.06533 15.691 4.52371 15.6721 5.2293 15.7377C5.9349 15.8033 6.67153 15.9534 7.60267 16C8.37829 16.0388 8.81793 16.0734 9.59116 16C10.1981 15.9424 10.539 15.8873 11.1306 15.7377C11.6152 15.6152 11.8871 15.5366 12.3494 15.3443C12.8994 15.1154 13.2643 15.0393 13.6964 14.623C13.9699 14.3595 14.0918 14.1722 14.2737 13.8361C14.4924 13.4321 14.3072 13.0113 14.6586 12.7213C14.9759 12.4595 15.3001 12.5246 15.6849 12.5246C16.0698 12.5246 20.0468 12.3279 20.0468 12.3279H26.4613C26.4613 12.3279 30.5264 12.4838 33.1324 12.5246C36.088 12.5709 40.7015 12.5246 40.7015 12.5246H48.9121L51.093 11.541L46.667 11.3443L41.792 11.1475L36.7245 10.8852L32.9399 10.4262L31.0156 10.0984L29.2195 9.63934C29.2195 9.63934 28.4324 9.45144 28.0649 9.11475C27.8522 8.91987 27.7025 8.80282 27.6159 8.52459C27.54 8.28056 27.5612 8.11876 27.6159 7.86885C27.6919 7.52167 27.8296 7.34405 28.0649 7.08197C28.4137 6.69351 28.6998 6.608 29.1554 6.36066C29.749 6.03834 30.759 5.63934 30.759 5.63934L32.4268 5.04918L34.8002 4.26229L36.7245 3.7377L38.9696 3.27869L42.241 2.68852L45.1916 2.29508L48.5913 1.90164C48.5913 1.90164 51.2854 1.70492 51.3496 1.70492C51.4137 1.70492 52.4038 1.60153 53.0815 1.57377C53.8824 1.54096 55.07 1.44262 55.1341 1.57377C55.1983 1.70492 55.2133 1.77322 55.2624 1.90164C56.649 5.52428 56.8019 11.7377 56.8019 11.7377H61.292L57.8924 1.44262H58.9187C58.9187 1.44262 61.7814 1.49464 63.6013 1.70492C64.6327 1.8241 66.2312 2.09836 66.2312 2.09836L69.3102 2.81967C69.3102 2.81967 71.5718 3.39823 72.9664 3.93443C74.1734 4.39848 74.807 4.76676 75.9813 5.31148C77.2877 5.91749 78.0401 6.21621 79.3168 6.88525C80.8348 7.68073 83.1013 9.11475 83.1013 9.11475L87.0142 11.6721L89.0027 12.8525L90.6063 12.459L92.4024 12.1311L90.2214 10.8852L87.0142 9.11475L80.5997 5.77049C80.5997 5.77049 78.4796 4.58754 77.0717 3.93443C75.8644 3.37436 74.6984 2.88525 73.9286 2.62295C73.1589 2.36066 71.5552 1.83607 70.9138 1.63934C70.2292 1.42939 68.3266 1.02732 67.45 0.852459C66.5733 0.677596 65.0125 0.459016 64.2427 0.393443C63.473 0.327869 61.292 0.196721 61.292 0.196721L57.6358 0H51.093L47.8216 0.196721L43.6522 0.52459L38.9696 1.11475L34.8002 1.70492L31.7853 2.29508L28.0649 3.27869L23.4465 4.72131L18.8922 6.42623L15.6849 7.67213L12.606 8.91803L9.20629 10.0984L6.70464 10.9508C6.23424 11.1257 5.2293 11.3443 5.03687 11.4098C4.78596 11.4953 4.45956 11.6721 4.33127 11.9344C4.22864 12.1443 4.24574 12.5027 4.33127 12.7213C4.33127 12.7213 4.08918 12.7325 3.9464 12.7869C3.80953 12.839 3.7298 12.8789 3.62568 12.9836C3.38744 13.2232 3.64417 13.5711 3.43324 13.8361Z" fill="url(#paint1_linear)"/>
<path d="M88.3612 9.83607L86.6935 8.98361L84.705 9.31148C84.705 9.31148 83.332 9.40332 82.4599 9.31148C81.7757 9.23944 80.9846 9.05957 80.728 8.98361C80.4714 8.90765 80.2619 8.84989 79.9582 8.78688C79.6353 8.71989 79.1244 8.65574 79.1244 8.65574C79.1244 8.65574 78.47 8.61607 78.098 8.78689C77.8825 8.88589 77.7689 8.96322 77.5849 9.11476C77.4193 9.25106 77.3285 9.33507 77.2 9.5082C77.078 9.67271 77.0717 9.70492 77.0717 9.70492C77.0717 9.70492 76.7783 10.2284 76.6869 10.4262C76.5954 10.6241 76.5453 10.7383 76.4944 10.9508C76.4523 11.1267 76.4028 11.2965 76.4303 11.4754C76.4512 11.6117 76.4632 11.6402 76.5586 11.7377C76.6468 11.828 76.731 11.8347 76.8512 11.8689C77.079 11.9336 77.3283 11.9344 77.4566 11.9344C77.5849 11.9344 78.0107 11.9392 78.3546 11.8689C78.6753 11.8033 78.8036 11.8033 78.9961 11.8689C79.1885 11.9344 79.3809 12 79.5092 12.0656C79.6375 12.1311 79.7658 12.1967 79.8941 12.3934C80.0224 12.5902 80.0161 12.5905 80.0865 12.7213C80.2326 12.9924 80.4073 13.4426 80.4073 13.4426C80.4073 13.4426 80.599 13.8306 80.6638 14.0984C80.7005 14.2496 80.6638 14.4918 80.728 14.4918C80.7921 14.4918 106.899 14.6229 106.899 14.6229C106.899 14.6229 107.653 14.3293 105.039 13.9672C103.68 13.779 103.987 13.8038 101.575 13.4426C100.828 13.3307 100.175 13.2474 99.6642 13.182L99.6508 13.1803C99.1376 13.1148 98.5603 13.024 97.9188 12.918C97.2774 12.8121 97.534 12.8525 96.7001 12.7213C95.8662 12.5902 95.0965 12.459 95.0965 12.459L94.5192 12.3279C93.9419 12.1967 94.1343 12.2623 93.7494 12.1311L92.9797 11.8689C92.9797 11.8689 92.5948 11.7205 92.3382 11.6066C92.0816 11.4927 91.7609 11.3443 91.7609 11.3443L91.2478 11.082C91.0553 10.9836 90.478 10.7541 90.478 10.7541L88.3612 9.83607Z" fill="url(#paint2_linear)"/>
<defs>
<linearGradient id="paint0_linear" x1="54" y1="0" x2="54" y2="20" gradientUnits="userSpaceOnUse">
<stop stop-color="#3AD5D5"/>
<stop offset="1" stop-color="#37467B"/>
</linearGradient>
<linearGradient id="paint1_linear" x1="54" y1="0" x2="54" y2="20" gradientUnits="userSpaceOnUse">
<stop stop-color="#3AD5D5"/>
<stop offset="1" stop-color="#37467B"/>
</linearGradient>
<linearGradient id="paint2_linear" x1="54" y1="0" x2="54" y2="20" gradientUnits="userSpaceOnUse">
<stop stop-color="#3AD5D5"/>
<stop offset="1" stop-color="#37467B"/>
</linearGradient>
</defs>
</svg>
