<svg width="11" height="11" viewBox="0 0 11 11" fill="none" xmlns="http://www.w3.org/2000/svg">
<path d="M8.55574 5.07078L3.6606 0.17573C3.54738 0.0624223 3.39624 0 3.23509 0C3.07394 0 2.9228 0.0624223 2.80958 0.17573L2.44909 0.536134C2.21451 0.770977 2.21451 1.15267 2.44909 1.38715L6.55966 5.49772L2.44453 9.61285C2.33131 9.72616 2.2688 9.8772 2.2688 10.0383C2.2688 10.1995 2.33131 10.3506 2.44453 10.464L2.80502 10.8243C2.91833 10.9376 3.06938 11 3.23053 11C3.39168 11 3.54282 10.9376 3.65604 10.8243L8.55574 5.92475C8.66923 5.81108 8.73156 5.65932 8.7312 5.49799C8.73156 5.33603 8.66923 5.18436 8.55574 5.07078Z" fill="black"/>
</svg>
