<svg width="23" height="22" viewBox="0 0 23 22" fill="none" xmlns="http://www.w3.org/2000/svg">
<path d="M16.3779 0H6.53942C3.33739 0 0.732422 2.67144 0.732422 5.95519V16.0449C0.732422 19.3285 3.33739 22 6.53942 22H16.3781C19.58 22 22.1849 19.3285 22.1849 16.0449V5.95519C22.1849 2.67144 19.58 0 16.3779 0V0ZM11.4587 17.0154C8.22424 17.0154 5.59292 14.317 5.59292 11C5.59292 7.683 8.22424 4.98453 11.4587 4.98453C14.6931 4.98453 17.3244 7.683 17.3244 11C17.3244 14.317 14.6931 17.0154 11.4587 17.0154ZM17.4647 6.40317C16.5089 6.40317 15.7314 5.6059 15.7314 4.62568C15.7314 3.64546 16.5089 2.84802 17.4647 2.84802C18.4205 2.84802 19.1981 3.64546 19.1981 4.62568C19.1981 5.6059 18.4205 6.40317 17.4647 6.40317Z" fill="#37467B"/>
<path d="M11.4586 6.27426C8.91786 6.27426 6.85059 8.39416 6.85059 11C6.85059 13.6056 8.91786 15.7257 11.4586 15.7257C13.9995 15.7257 16.0667 13.6056 16.0667 11C16.0667 8.39416 13.9995 6.27426 11.4586 6.27426Z" fill="#37467B"/>
<path d="M17.4649 4.13791C17.2027 4.13791 16.9893 4.35678 16.9893 4.62567C16.9893 4.89456 17.2027 5.11343 17.4649 5.11343C17.7272 5.11343 17.9407 4.89473 17.9407 4.62567C17.9407 4.35661 17.7272 4.13791 17.4649 4.13791Z" fill="#37467B"/>
</svg>
