<svg width="125" height="17" viewBox="0 0 125 17" fill="none" xmlns="http://www.w3.org/2000/svg">
<path d="M4.584 5.6C5.672 5.6 6.528 5.86 7.152 6.38C7.776 6.9 8.088 7.616 8.088 8.528C8.088 9.44 7.776 10.156 7.152 10.676C6.528 11.196 5.672 11.456 4.584 11.456H2.508V14H1.308V5.6H4.584ZM4.548 10.412C5.308 10.412 5.888 10.252 6.288 9.932C6.688 9.604 6.888 9.136 6.888 8.528C6.888 7.92 6.688 7.456 6.288 7.136C5.888 6.808 5.308 6.644 4.548 6.644H2.508V10.412H4.548ZM11.7746 7.58C12.6546 7.58 13.3266 7.796 13.7906 8.228C14.2626 8.66 14.4986 9.304 14.4986 10.16V14H13.4066V13.16C13.2146 13.456 12.9386 13.684 12.5786 13.844C12.2266 13.996 11.8066 14.072 11.3186 14.072C10.6066 14.072 10.0346 13.9 9.60263 13.556C9.17863 13.212 8.96663 12.76 8.96663 12.2C8.96663 11.64 9.17063 11.192 9.57863 10.856C9.98663 10.512 10.6346 10.34 11.5226 10.34H13.3466V10.112C13.3466 9.616 13.2026 9.236 12.9146 8.972C12.6266 8.708 12.2026 8.576 11.6426 8.576C11.2666 8.576 10.8986 8.64 10.5386 8.768C10.1786 8.888 9.87463 9.052 9.62663 9.26L9.14663 8.396C9.47463 8.132 9.86663 7.932 10.3226 7.796C10.7786 7.652 11.2626 7.58 11.7746 7.58ZM11.5106 13.184C11.9506 13.184 12.3306 13.088 12.6506 12.896C12.9706 12.696 13.2026 12.416 13.3466 12.056V11.168H11.5706C10.5946 11.168 10.1066 11.496 10.1066 12.152C10.1066 12.472 10.2306 12.724 10.4786 12.908C10.7266 13.092 11.0706 13.184 11.5106 13.184ZM19.9116 10.688C20.3356 10.8 20.6636 10.98 20.8956 11.228C21.1276 11.476 21.2436 11.784 21.2436 12.152C21.2436 12.528 21.1156 12.864 20.8596 13.16C20.6036 13.448 20.2476 13.676 19.7916 13.844C19.3436 14.004 18.8396 14.084 18.2796 14.084C17.8076 14.084 17.3436 14.024 16.8876 13.904C16.4396 13.776 16.0396 13.596 15.6876 13.364L16.0356 12.488C16.3396 12.68 16.6876 12.832 17.0796 12.944C17.4716 13.048 17.8676 13.1 18.2676 13.1C18.8116 13.1 19.2436 13.008 19.5636 12.824C19.8916 12.632 20.0556 12.376 20.0556 12.056C20.0556 11.76 19.9236 11.532 19.6596 11.372C19.4036 11.212 19.0396 11.132 18.5676 11.132H17.4036V10.304H18.4836C18.9156 10.304 19.2556 10.228 19.5036 10.076C19.7516 9.924 19.8756 9.716 19.8756 9.452C19.8756 9.164 19.7276 8.94 19.4316 8.78C19.1436 8.62 18.7516 8.54 18.2556 8.54C17.6236 8.54 16.9556 8.704 16.2516 9.032L15.9396 8.144C16.7156 7.752 17.5276 7.556 18.3756 7.556C18.8876 7.556 19.3476 7.628 19.7556 7.772C20.1636 7.916 20.4836 8.12 20.7156 8.384C20.9476 8.648 21.0636 8.948 21.0636 9.284C21.0636 9.596 20.9596 9.876 20.7516 10.124C20.5436 10.372 20.2636 10.56 19.9116 10.688ZM26.3669 7.58C26.9829 7.58 27.5349 7.716 28.0229 7.988C28.5109 8.26 28.8909 8.64 29.1629 9.128C29.4429 9.616 29.5829 10.18 29.5829 10.82C29.5829 11.46 29.4429 12.028 29.1629 12.524C28.8909 13.012 28.5109 13.392 28.0229 13.664C27.5349 13.936 26.9829 14.072 26.3669 14.072C25.9109 14.072 25.4909 13.984 25.1069 13.808C24.7309 13.632 24.4109 13.376 24.1469 13.04V16.328H22.9949V7.64H24.0989V8.648C24.3549 8.296 24.6789 8.032 25.0709 7.856C25.4629 7.672 25.8949 7.58 26.3669 7.58ZM26.2709 13.064C26.6789 13.064 27.0429 12.972 27.3629 12.788C27.6909 12.596 27.9469 12.332 28.1309 11.996C28.3229 11.652 28.4189 11.26 28.4189 10.82C28.4189 10.38 28.3229 9.992 28.1309 9.656C27.9469 9.312 27.6909 9.048 27.3629 8.864C27.0429 8.68 26.6789 8.588 26.2709 8.588C25.8709 8.588 25.5069 8.684 25.1789 8.876C24.8589 9.06 24.6029 9.32 24.4109 9.656C24.2269 9.992 24.1349 10.38 24.1349 10.82C24.1349 11.26 24.2269 11.652 24.4109 11.996C24.5949 12.332 24.8509 12.596 25.1789 12.788C25.5069 12.972 25.8709 13.064 26.2709 13.064ZM33.466 7.58C34.346 7.58 35.018 7.796 35.482 8.228C35.954 8.66 36.19 9.304 36.19 10.16V14H35.098V13.16C34.906 13.456 34.63 13.684 34.27 13.844C33.918 13.996 33.498 14.072 33.01 14.072C32.298 14.072 31.726 13.9 31.294 13.556C30.87 13.212 30.658 12.76 30.658 12.2C30.658 11.64 30.862 11.192 31.27 10.856C31.678 10.512 32.326 10.34 33.214 10.34H35.038V10.112C35.038 9.616 34.894 9.236 34.606 8.972C34.318 8.708 33.894 8.576 33.334 8.576C32.958 8.576 32.59 8.64 32.23 8.768C31.87 8.888 31.566 9.052 31.318 9.26L30.838 8.396C31.166 8.132 31.558 7.932 32.014 7.796C32.47 7.652 32.954 7.58 33.466 7.58ZM33.202 13.184C33.642 13.184 34.022 13.088 34.342 12.896C34.662 12.696 34.894 12.416 35.038 12.056V11.168H33.262C32.286 11.168 31.798 11.496 31.798 12.152C31.798 12.472 31.922 12.724 32.17 12.908C32.418 13.092 32.762 13.184 33.202 13.184ZM41.5044 7.856C42.0964 7.856 42.6244 7.988 43.0884 8.252C43.5524 8.516 43.9124 8.884 44.1684 9.356C44.4324 9.82 44.5644 10.352 44.5644 10.952C44.5644 11.568 44.4244 12.116 44.1444 12.596C43.8724 13.068 43.4844 13.436 42.9804 13.7C42.4844 13.964 41.9164 14.096 41.2764 14.096C40.1964 14.096 39.3604 13.728 38.7684 12.992C38.1844 12.248 37.8924 11.204 37.8924 9.86C37.8924 8.556 38.1604 7.536 38.6964 6.8C39.2324 6.056 40.0524 5.564 41.1564 5.324L44.0604 4.676L44.2284 5.732L41.5524 6.308C40.7204 6.492 40.1004 6.804 39.6924 7.244C39.2844 7.684 39.0524 8.316 38.9964 9.14C39.2684 8.732 39.6204 8.416 40.0524 8.192C40.4844 7.968 40.9684 7.856 41.5044 7.856ZM41.3004 13.136C41.7084 13.136 42.0684 13.044 42.3804 12.86C42.7004 12.676 42.9484 12.424 43.1244 12.104C43.3004 11.776 43.3884 11.404 43.3884 10.988C43.3884 10.356 43.1964 9.848 42.8124 9.464C42.4284 9.08 41.9244 8.888 41.3004 8.888C40.6764 8.888 40.1684 9.08 39.7764 9.464C39.3924 9.848 39.2004 10.356 39.2004 10.988C39.2004 11.404 39.2884 11.776 39.4644 12.104C39.6484 12.424 39.9004 12.676 40.2204 12.86C40.5404 13.044 40.9004 13.136 41.3004 13.136ZM48.9338 14.072C48.3018 14.072 47.7338 13.932 47.2298 13.652C46.7258 13.372 46.3298 12.988 46.0418 12.5C45.7618 12.004 45.6218 11.444 45.6218 10.82C45.6218 10.196 45.7618 9.64 46.0418 9.152C46.3298 8.656 46.7258 8.272 47.2298 8C47.7338 7.72 48.3018 7.58 48.9338 7.58C49.5658 7.58 50.1298 7.72 50.6258 8C51.1298 8.272 51.5218 8.656 51.8018 9.152C52.0898 9.64 52.2338 10.196 52.2338 10.82C52.2338 11.444 52.0898 12.004 51.8018 12.5C51.5218 12.988 51.1298 13.372 50.6258 13.652C50.1298 13.932 49.5658 14.072 48.9338 14.072ZM48.9338 13.064C49.3418 13.064 49.7058 12.972 50.0258 12.788C50.3538 12.596 50.6098 12.332 50.7938 11.996C50.9778 11.652 51.0698 11.26 51.0698 10.82C51.0698 10.38 50.9778 9.992 50.7938 9.656C50.6098 9.312 50.3538 9.048 50.0258 8.864C49.7058 8.68 49.3418 8.588 48.9338 8.588C48.5258 8.588 48.1578 8.68 47.8298 8.864C47.5098 9.048 47.2538 9.312 47.0618 9.656C46.8778 9.992 46.7858 10.38 46.7858 10.82C46.7858 11.26 46.8778 11.652 47.0618 11.996C47.2538 12.332 47.5098 12.596 47.8298 12.788C48.1578 12.972 48.5258 13.064 48.9338 13.064ZM58.4029 8.648H56.0749V14H54.9229V8.648H52.5949V7.64H58.4029V8.648ZM61.8488 7.58C62.7288 7.58 63.4008 7.796 63.8648 8.228C64.3368 8.66 64.5728 9.304 64.5728 10.16V14H63.4808V13.16C63.2888 13.456 63.0128 13.684 62.6528 13.844C62.3008 13.996 61.8808 14.072 61.3928 14.072C60.6808 14.072 60.1088 13.9 59.6768 13.556C59.2528 13.212 59.0408 12.76 59.0408 12.2C59.0408 11.64 59.2448 11.192 59.6528 10.856C60.0608 10.512 60.7088 10.34 61.5968 10.34H63.4208V10.112C63.4208 9.616 63.2768 9.236 62.9888 8.972C62.7008 8.708 62.2768 8.576 61.7168 8.576C61.3408 8.576 60.9728 8.64 60.6128 8.768C60.2528 8.888 59.9488 9.052 59.7008 9.26L59.2208 8.396C59.5488 8.132 59.9408 7.932 60.3968 7.796C60.8528 7.652 61.3368 7.58 61.8488 7.58ZM61.5848 13.184C62.0248 13.184 62.4048 13.088 62.7248 12.896C63.0448 12.696 63.2768 12.416 63.4208 12.056V11.168H61.6448C60.6688 11.168 60.1808 11.496 60.1808 12.152C60.1808 12.472 60.3048 12.724 60.5528 12.908C60.8008 13.092 61.1448 13.184 61.5848 13.184ZM66.6473 7.64H67.7993V10.34H71.4233V7.64H72.5753V14H71.4233V11.336H67.7993V14H66.6473V7.64ZM77.5392 14.072C76.9072 14.072 76.3392 13.932 75.8352 13.652C75.3312 13.372 74.9352 12.988 74.6472 12.5C74.3672 12.004 74.2272 11.444 74.2272 10.82C74.2272 10.196 74.3672 9.64 74.6472 9.152C74.9352 8.656 75.3312 8.272 75.8352 8C76.3392 7.72 76.9072 7.58 77.5392 7.58C78.1712 7.58 78.7352 7.72 79.2312 8C79.7352 8.272 80.1272 8.656 80.4072 9.152C80.6952 9.64 80.8392 10.196 80.8392 10.82C80.8392 11.444 80.6952 12.004 80.4072 12.5C80.1272 12.988 79.7352 13.372 79.2312 13.652C78.7352 13.932 78.1712 14.072 77.5392 14.072ZM77.5392 13.064C77.9472 13.064 78.3112 12.972 78.6312 12.788C78.9592 12.596 79.2152 12.332 79.3992 11.996C79.5832 11.652 79.6752 11.26 79.6752 10.82C79.6752 10.38 79.5832 9.992 79.3992 9.656C79.2152 9.312 78.9592 9.048 78.6312 8.864C78.3112 8.68 77.9472 8.588 77.5392 8.588C77.1312 8.588 76.7632 8.68 76.4352 8.864C76.1152 9.048 75.8592 9.312 75.6672 9.656C75.4832 9.992 75.3912 10.38 75.3912 10.82C75.3912 11.26 75.4832 11.652 75.6672 11.996C75.8592 12.332 76.1152 12.596 76.4352 12.788C76.7632 12.972 77.1312 13.064 77.5392 13.064ZM90.0574 10.7C90.8814 10.908 91.2934 11.424 91.2934 12.248C91.2934 12.808 91.0814 13.24 90.6574 13.544C90.2414 13.848 89.6174 14 88.7854 14H85.7254V7.64H88.6774C89.4294 7.64 90.0174 7.784 90.4414 8.072C90.8654 8.352 91.0774 8.752 91.0774 9.272C91.0774 9.608 90.9854 9.9 90.8014 10.148C90.6254 10.388 90.3774 10.572 90.0574 10.7ZM86.8534 10.376H88.5814C89.0214 10.376 89.3534 10.296 89.5774 10.136C89.8094 9.976 89.9254 9.744 89.9254 9.44C89.9254 8.832 89.4774 8.528 88.5814 8.528H86.8534V10.376ZM88.7014 13.112C89.1814 13.112 89.5414 13.036 89.7814 12.884C90.0214 12.732 90.1414 12.496 90.1414 12.176C90.1414 11.848 90.0294 11.604 89.8054 11.444C89.5894 11.284 89.2454 11.204 88.7734 11.204H86.8534V13.112H88.7014Z" fill="#657188"/>
<path d="M124.981 4.60526C124.668 3.13158 121.79 2.70176 118.162 2.88597C116.911 1.10526 114.784 0 112.469 0C109.404 0 106.839 1.90351 105.838 4.66666C105.775 4.91228 105.65 5.15789 105.65 5.40351C105.525 5.77193 105.463 6.20176 105.463 6.63158C105.463 6.81579 105.463 6.9386 105.463 7.12281C105.463 7.4298 105.463 7.67546 105.525 7.98243C105.65 8.78073 105.838 9.51757 106.213 10.2544C105.588 10.2544 105.025 10.2544 104.462 10.2544C101.834 10.1316 101.146 9.57895 101.084 9.39474C101.021 9.21053 101.459 8.47368 103.774 7.36842V6.07895C103.648 6.14035 103.523 6.20176 103.461 6.20176C100.958 7.30702 99.8324 8.4123 100.02 9.45612C100.208 10.5 101.709 11.114 104.462 11.1755C104.774 11.1755 105.025 11.1755 105.338 11.1755C105.838 11.1755 106.338 11.1755 106.839 11.114C108.09 12.8947 110.217 14 112.532 14C114.534 14 116.348 13.2018 117.599 11.8509H115.91C114.909 12.5263 113.783 12.8947 112.532 12.8947C110.78 12.8947 109.216 12.1579 108.153 10.9913C108.465 10.9913 108.716 10.9298 109.028 10.9298C110.342 10.807 111.781 10.5614 113.22 10.3158C113.908 10.193 114.596 10.0702 115.222 9.88599C116.223 9.64033 117.224 9.39474 118.162 9.08769C118.6 8.96494 119.038 8.8421 119.413 8.6579C119.476 8.6579 119.538 8.59652 119.538 8.59652C120.289 8.35085 120.977 8.04388 121.603 7.79822C123.98 6.75439 125.168 5.64913 124.981 4.60526ZM118.35 7.92105C118.037 8.04388 117.724 8.10526 117.349 8.2281C116.786 8.41231 116.223 8.53506 115.597 8.71927C115.409 8.78073 115.222 8.8421 115.034 8.8421C114.346 9.02632 113.595 9.14915 112.844 9.33336C110.905 9.70178 108.966 9.94737 107.214 10.0702C106.839 9.39474 106.589 8.6579 106.464 7.85967C106.401 7.61401 106.401 7.30702 106.401 7C106.401 6.69298 106.401 6.38597 106.464 6.14035C106.526 5.71053 106.651 5.2807 106.776 4.91228C106.776 4.85087 106.839 4.78947 106.901 4.66666C107.777 2.51755 109.967 1.04386 112.407 1.04386C114.158 1.04386 115.722 1.7807 116.786 2.94737C117.098 3.25439 117.349 3.62281 117.536 3.99123C118.037 4.85087 118.35 5.89474 118.35 7C118.412 7.36842 118.35 7.67546 118.35 7.92105ZM121.102 6.87719C120.602 7.12281 120.101 7.30702 119.476 7.55263C119.476 7.36842 119.476 7.24561 119.476 7.0614C119.476 5.95614 119.225 4.91228 118.788 3.99123C119.1 3.99123 119.351 3.99123 119.663 3.99123C119.976 3.99123 120.226 3.99123 120.539 3.99123C123.229 4.11403 123.855 4.66666 123.917 4.85087C123.917 5.03509 123.479 5.83334 121.102 6.87719Z" fill="#657188"/>
</svg>
