<?xml version="1.0" encoding="utf-8"?>
<!-- Generator: Adobe Illustrator 24.1.1, SVG Export Plug-In . SVG Version: 6.00 Build 0)  -->
<svg version="1.1" id="Слой_1" xmlns="http://www.w3.org/2000/svg" xmlns:xlink="http://www.w3.org/1999/xlink" x="0px" y="0px"
	 viewBox="0 0 36 36.9" style="enable-background:new 0 0 36 36.9;" xml:space="preserve">
<style type="text/css">
	.st0{fill:#626776;}
</style>
<g>
	<path class="st0" d="M26.3,0H9.7C4.4,0,0,4.5,0,10v16.9c0,5.5,4.4,10,9.7,10h16.5c5.4,0,9.7-4.5,9.7-10V10C36,4.5,31.6,0,26.3,0
		L26.3,0z M18,28.6c-5.4,0-9.8-4.5-9.8-10.1c0-5.6,4.4-10.1,9.8-10.1s9.8,4.5,9.8,10.1C27.8,24,23.4,28.6,18,28.6z M28.1,10.7
		c-1.6,0-2.9-1.3-2.9-3c0-1.6,1.3-3,2.9-3s2.9,1.3,2.9,3C31,9.4,29.7,10.7,28.1,10.7z"/>
	<path class="st0" d="M18,10.5c-4.3,0-7.7,3.6-7.7,7.9c0,4.4,3.5,7.9,7.7,7.9c4.3,0,7.7-3.6,7.7-7.9C25.7,14.1,22.3,10.5,18,10.5z"
		/>
	<path class="st0" d="M28.1,6.9c-0.4,0-0.8,0.4-0.8,0.8s0.4,0.8,0.8,0.8c0.4,0,0.8-0.4,0.8-0.8C28.9,7.3,28.5,6.9,28.1,6.9z"/>
</g>
</svg>
